<svg width="48" height="48" viewBox="0 0 48 48" fill="none" xmlns="http://www.w3.org/2000/svg">
<path d="M22 8V20C22 22.2091 17.9706 24 13 24C8.02944 24 4 22.2091 4 20V8" stroke="white" stroke-width="4" stroke-linecap="round" stroke-linejoin="round"/>
<path d="M22 14C22 16.2091 17.9706 18 13 18C8.02944 18 4 16.2091 4 14" stroke="white" stroke-width="4" stroke-linecap="round" stroke-linejoin="round"/>
<path d="M22 8C22 10.2091 17.9706 12 13 12C8.02944 12 4 10.2091 4 8C4 5.79086 8.02944 4 13 4C17.9706 4 22 5.79086 22 8Z" fill="#2F88FF" stroke="white" stroke-width="4" stroke-linecap="round" stroke-linejoin="round"/>
<path d="M32 6H38C40.2091 6 42 7.79086 42 10V16" stroke="white" stroke-width="4" stroke-linecap="round" stroke-linejoin="round"/>
<path d="M16 42H10C7.79086 42 6 40.2091 6 38V32" stroke="white" stroke-width="4" stroke-linecap="round" stroke-linejoin="round"/>
<path d="M35 34C37.7614 34 40 31.7614 40 29C40 26.2386 37.7614 24 35 24C32.2386 24 30 26.2386 30 29C30 31.7614 32.2386 34 35 34Z" fill="#2F88FF" stroke="white" stroke-width="4" stroke-linecap="round" stroke-linejoin="round"/>
<path d="M44 44H26C26 39.0294 30.0294 35 35 35C39.9706 35 44 39.0294 44 44Z" fill="#2F88FF" stroke="white" stroke-width="4" stroke-linecap="round" stroke-linejoin="round"/>
</svg>
