<svg width="76" height="44" viewBox="0 0 76 44" fill="none" xmlns="http://www.w3.org/2000/svg">
<path d="M2.84962 32.3969C5.90862 25.0387 8.58064 17.065 12.7997 10.2401C13.4567 9.17723 14.2782 7.75121 15.3641 7.06019C18.0766 5.33404 22.3235 3.92522 25.4167 2.8545C35.3727 -0.591801 43.6855 1.10364 53.2153 4.64961C60.6188 7.40442 66.5631 9.92775 72.0896 15.7793C75.6661 19.5662 74.8592 25.8589 74.8592 30.6018C74.8592 33.7751 75.2765 40.0073 71.628 41.6289C66.2541 44.0173 58.3999 42.5521 52.4972 42.5521C46.5135 42.5521 40.5298 42.5521 34.5461 42.5521C27.4664 42.5521 21.1565 41.0828 14.5435 38.3464C9.37437 36.2074 6.67677 30.5505 1.00323 30.5505" stroke="#3C5BFF" stroke-width="2" stroke-linecap="round" stroke-dasharray="4 4"/>
</svg>
